<svg width="52" height="52" viewBox="0 0 52 52" fill="none" xmlns="http://www.w3.org/2000/svg">
<path d="M23.8852 6.20481L13.3083 12.1279C12.039 12.974 11.1929 14.2433 11.1929 15.724V34.5509C11.1929 35.8202 11.8275 37.3009 12.8852 37.9356L23.4621 45.5509C24.9429 46.6086 26.8467 46.6086 28.3275 45.5509L38.9044 37.9356C39.9621 37.0894 40.5967 35.8202 40.5967 34.5509V15.9356C40.5967 14.4548 39.7505 12.974 38.4813 12.3394L27.9044 6.20481C26.8467 5.35865 25.1544 5.35865 23.8852 6.20481Z" stroke="#FFCC00" stroke-width="3.17308" stroke-miterlimit="10" stroke-linecap="round" stroke-linejoin="round"/>
<path d="M26.0005 7.0509L21.7698 26.0894L25.5775 45.5509" stroke="#FFCC00" stroke-width="3.17308" stroke-miterlimit="10" stroke-linecap="round" stroke-linejoin="round"/>
<path d="M39.1159 36.4548L21.7698 26.0894L39.7505 16.1471" stroke="#FFCC00" stroke-width="3.17308" stroke-miterlimit="10" stroke-linecap="round" stroke-linejoin="round"/>
</svg>
