<svg width="18" height="19" viewBox="0 0 18 19" fill="none" xmlns="http://www.w3.org/2000/svg">
<path fill-rule="evenodd" clip-rule="evenodd" d="M15.538 2.44287L9.71642 3.60719C9.37441 3.67268 9.13428 3.97104 9.13428 4.32033V8.08979C9.13428 8.49002 9.46174 8.81749 9.86197 8.81749H15.6835C16.0838 8.81749 16.4112 8.49002 16.4112 8.08979V3.15602C16.4112 2.69757 15.9892 2.35554 15.538 2.44287Z" fill="#D6D6D6"/>
<path fill-rule="evenodd" clip-rule="evenodd" d="M15.538 16.6476L9.71642 15.4832C9.37441 15.4178 9.13428 15.1194 9.13428 14.7701V11.0006C9.13428 10.6004 9.46174 10.2729 9.86197 10.2729H15.6835C16.0838 10.2729 16.4112 10.6004 16.4112 11.0006V15.9344C16.4112 16.3929 15.9892 16.7349 15.538 16.6476Z" fill="#D6D6D6"/>
<path fill-rule="evenodd" clip-rule="evenodd" d="M6.79821 4.13155L2.43204 5.05571C2.0973 5.12848 1.85718 5.42685 1.85718 5.76886V8.09021C1.85718 8.49045 2.18464 8.81791 2.58487 8.81791H6.95104C7.35128 8.81791 7.67874 8.49045 7.67874 8.09021V4.83741C7.67874 4.37897 7.24938 4.02967 6.79821 4.13155Z" fill="#D6D6D6"/>
<path fill-rule="evenodd" clip-rule="evenodd" d="M6.79821 14.9593L2.43204 14.0351C2.0973 13.9624 1.85718 13.664 1.85718 13.322V11.0006C1.85718 10.6004 2.18464 10.2729 2.58487 10.2729H6.95104C7.35128 10.2729 7.67874 10.6004 7.67874 11.0006V14.2534C7.67874 14.7119 7.24938 15.0612 6.79821 14.9593Z" fill="#D6D6D6"/>
</svg>
