<svg width="52" height="52" viewBox="0 0 52 52" fill="none" xmlns="http://www.w3.org/2000/svg">
<path d="M42.4792 32.0123C38.1215 36.3489 31.8811 37.6815 26.4023 35.9681L16.4388 45.9104C15.7196 46.6508 14.3023 47.095 13.2869 46.9469L8.67538 46.3123C7.15231 46.1008 5.735 44.6623 5.50231 43.1392L4.86769 38.5277C4.71962 37.5123 5.20615 36.095 5.90423 35.3758L15.8465 25.4335C14.1542 19.9335 15.4658 13.6931 19.8235 9.35656C26.0638 3.11617 36.1965 3.11617 42.4581 9.35656C48.7196 15.5969 48.7196 25.7719 42.4792 32.0123Z" stroke="#3A65D2" stroke-width="3.17308" stroke-miterlimit="10" stroke-linecap="round" stroke-linejoin="round"/>
<path d="M15.1909 37.4277L20.0563 42.2931" stroke="#3A65D2" stroke-width="3.17308" stroke-miterlimit="10" stroke-linecap="round" stroke-linejoin="round"/>
<path d="M31.289 23.6989C33.0415 23.6989 34.4621 22.2783 34.4621 20.5259C34.4621 18.7734 33.0415 17.3528 31.289 17.3528C29.5366 17.3528 28.116 18.7734 28.116 20.5259C28.116 22.2783 29.5366 23.6989 31.289 23.6989Z" stroke="#3A65D2" stroke-width="3.17308" stroke-linecap="round" stroke-linejoin="round"/>
</svg>
