<svg width="52" height="52" viewBox="0 0 52 52" fill="none" xmlns="http://www.w3.org/2000/svg">
<path d="M26.0005 47.3689C37.6835 47.3689 47.1544 37.8981 47.1544 26.2151C47.1544 14.5322 37.6835 5.06128 26.0005 5.06128C14.3176 5.06128 4.84668 14.5322 4.84668 26.2151C4.84668 37.8981 14.3176 47.3689 26.0005 47.3689Z" stroke="#46B17E" stroke-width="3.17308" stroke-linecap="round" stroke-linejoin="round"/>
<path d="M17.5389 7.17676H19.6543C15.5293 19.5306 15.5293 32.8998 19.6543 45.2537H17.5389" stroke="#46B17E" stroke-width="3.17308" stroke-linecap="round" stroke-linejoin="round"/>
<path d="M32.3467 7.17676C36.4717 19.5306 36.4717 32.8998 32.3467 45.2537" stroke="#46B17E" stroke-width="3.17308" stroke-linecap="round" stroke-linejoin="round"/>
<path d="M6.96216 34.6767V32.5613C19.316 36.6863 32.6852 36.6863 45.0391 32.5613V34.6767" stroke="#46B17E" stroke-width="3.17308" stroke-linecap="round" stroke-linejoin="round"/>
<path d="M6.96216 19.8689C19.316 15.7439 32.6852 15.7439 45.0391 19.8689" stroke="#46B17E" stroke-width="3.17308" stroke-linecap="round" stroke-linejoin="round"/>
</svg>
