<svg width="52" height="51" viewBox="0 0 52 51" fill="none" xmlns="http://www.w3.org/2000/svg">
<path d="M17.5389 12.1918C16.6716 12.1918 15.9524 11.4726 15.9524 10.6053V4.25915C15.9524 3.39184 16.6716 2.67261 17.5389 2.67261C18.4062 2.67261 19.1255 3.39184 19.1255 4.25915V10.6053C19.1255 11.4726 18.4062 12.1918 17.5389 12.1918Z" fill="#E49C2F"/>
<path d="M34.4623 12.1918C33.595 12.1918 32.8757 11.4726 32.8757 10.6053V4.25915C32.8757 3.39184 33.595 2.67261 34.4623 2.67261C35.3296 2.67261 36.0488 3.39184 36.0488 4.25915V10.6053C36.0488 11.4726 35.3296 12.1918 34.4623 12.1918Z" fill="#E49C2F"/>
<path d="M18.5968 30.7017C18.3218 30.7017 18.0468 30.6383 17.793 30.5325C17.518 30.4267 17.3064 30.2786 17.0949 30.0882C16.7141 29.6863 16.4814 29.1575 16.4814 28.5863C16.4814 28.3113 16.5449 28.0363 16.6507 27.7825C16.7564 27.5286 16.9045 27.2959 17.0949 27.0844C17.3064 26.894 17.518 26.7459 17.793 26.6401C18.5545 26.3228 19.5064 26.4921 20.0987 27.0844C20.4795 27.4863 20.7122 28.0363 20.7122 28.5863C20.7122 28.7132 20.6911 28.8613 20.6699 29.0094C20.6488 29.1363 20.6064 29.2632 20.543 29.3902C20.5007 29.5171 20.4372 29.644 20.3526 29.7709C20.2891 29.8767 20.1834 29.9824 20.0987 30.0882C19.6968 30.469 19.1468 30.7017 18.5968 30.7017Z" fill="#E49C2F"/>
<path d="M26.0004 30.7016C25.7254 30.7016 25.4504 30.6381 25.1965 30.5324C24.9215 30.4266 24.71 30.2785 24.4985 30.0881C24.1177 29.6862 23.885 29.1573 23.885 28.5862C23.885 28.3112 23.9485 28.0362 24.0542 27.7823C24.16 27.5285 24.3081 27.2958 24.4985 27.0843C24.71 26.8939 24.9215 26.7458 25.1965 26.64C25.9581 26.3016 26.91 26.492 27.5023 27.0843C27.8831 27.4862 28.1158 28.0362 28.1158 28.5862C28.1158 28.7131 28.0946 28.8612 28.0735 29.0093C28.0523 29.1362 28.01 29.2631 27.9465 29.3901C27.9042 29.517 27.8408 29.6439 27.7562 29.7708C27.6927 29.8766 27.5869 29.9823 27.5023 30.0881C27.1004 30.4689 26.5504 30.7016 26.0004 30.7016Z" fill="#E49C2F"/>
<path d="M33.4044 30.7016C33.1294 30.7016 32.8544 30.6381 32.6006 30.5324C32.3256 30.4266 32.1141 30.2785 31.9025 30.0881C31.8179 29.9823 31.7333 29.8766 31.6487 29.7708C31.5641 29.6439 31.5006 29.517 31.4583 29.3901C31.3948 29.2631 31.3525 29.1362 31.3314 29.0093C31.3102 28.8612 31.2891 28.7131 31.2891 28.5862C31.2891 28.0362 31.5218 27.4862 31.9025 27.0843C32.1141 26.8939 32.3256 26.7458 32.6006 26.64C33.3833 26.3016 34.3141 26.492 34.9064 27.0843C35.2871 27.4862 35.5198 28.0362 35.5198 28.5862C35.5198 28.7131 35.4987 28.8612 35.4775 29.0093C35.4564 29.1362 35.4141 29.2631 35.3506 29.3901C35.3083 29.517 35.2448 29.6439 35.1602 29.7708C35.0968 29.8766 34.991 29.9823 34.9064 30.0881C34.5044 30.4689 33.9544 30.7016 33.4044 30.7016Z" fill="#E49C2F"/>
<path d="M18.5968 38.1054C18.3218 38.1054 18.0468 38.042 17.793 37.9362C17.5391 37.8305 17.3064 37.6823 17.0949 37.492C16.7141 37.09 16.4814 36.54 16.4814 35.99C16.4814 35.715 16.5449 35.44 16.6507 35.1862C16.7564 34.9112 16.9045 34.6785 17.0949 34.4881C17.8776 33.7055 19.3161 33.7055 20.0987 34.4881C20.4795 34.8901 20.7122 35.44 20.7122 35.99C20.7122 36.54 20.4795 37.09 20.0987 37.492C19.6968 37.8727 19.1468 38.1054 18.5968 38.1054Z" fill="#E49C2F"/>
<path d="M26.0004 38.1054C25.4504 38.1054 24.9004 37.8727 24.4985 37.492C24.1177 37.09 23.885 36.54 23.885 35.99C23.885 35.715 23.9485 35.44 24.0542 35.1862C24.16 34.9112 24.3081 34.6785 24.4985 34.4881C25.2812 33.7055 26.7196 33.7055 27.5023 34.4881C27.6927 34.6785 27.8408 34.9112 27.9465 35.1862C28.0523 35.44 28.1158 35.715 28.1158 35.99C28.1158 36.54 27.8831 37.09 27.5023 37.492C27.1004 37.8727 26.5504 38.1054 26.0004 38.1054Z" fill="#E49C2F"/>
<path d="M33.4044 38.1057C32.8544 38.1057 32.3044 37.873 31.9025 37.4922C31.7121 37.3018 31.5641 37.0692 31.4583 36.7942C31.3525 36.5403 31.2891 36.2653 31.2891 35.9903C31.2891 35.7153 31.3525 35.4403 31.4583 35.1865C31.5641 34.9115 31.7121 34.6788 31.9025 34.4884C32.3891 34.0019 33.1294 33.7691 33.8064 33.9172C33.9544 33.9384 34.0814 33.9807 34.2083 34.0441C34.3352 34.0864 34.4621 34.15 34.5891 34.2346C34.6948 34.298 34.8006 34.4038 34.9064 34.4884C35.2871 34.8903 35.5198 35.4403 35.5198 35.9903C35.5198 36.5403 35.2871 37.0903 34.9064 37.4922C34.5044 37.873 33.9544 38.1057 33.4044 38.1057Z" fill="#E49C2F"/>
<path d="M43.9812 20.844H8.01964C7.15234 20.844 6.43311 20.1247 6.43311 19.2574C6.43311 18.3901 7.15234 17.6709 8.01964 17.6709H43.9812C44.8485 17.6709 45.5677 18.3901 45.5677 19.2574C45.5677 20.1247 44.8485 20.844 43.9812 20.844Z" fill="#E49C2F"/>
<path d="M34.462 48.1534H17.5389C9.81779 48.1534 5.37549 43.7111 5.37549 35.9899V18.0092C5.37549 10.288 9.81779 5.8457 17.5389 5.8457H34.462C42.1832 5.8457 46.6255 10.288 46.6255 18.0092V35.9899C46.6255 43.7111 42.1832 48.1534 34.462 48.1534ZM17.5389 9.01878C11.4889 9.01878 8.54856 11.9592 8.54856 18.0092V35.9899C8.54856 42.0399 11.4889 44.9803 17.5389 44.9803H34.462C40.512 44.9803 43.4524 42.0399 43.4524 35.9899V18.0092C43.4524 11.9592 40.512 9.01878 34.462 9.01878H17.5389Z" fill="#E49C2F"/>
</svg>
