<svg width="52" height="52" viewBox="0 0 52 52" fill="none" xmlns="http://www.w3.org/2000/svg">
<path d="M44.8487 23.8268C44.8487 34.171 37.3391 43.8595 27.0795 46.6941C26.3815 46.8845 25.6199 46.8845 24.9218 46.6941C14.6622 43.8595 7.15259 34.171 7.15259 23.8268V14.5402C7.15259 12.8056 8.46416 10.8383 10.093 10.1826L21.8756 5.35955C24.5199 4.2807 27.5026 4.2807 30.1468 5.35955L41.9295 10.1826C43.5372 10.8383 44.8699 12.8056 44.8699 14.5402L44.8487 23.8268Z" stroke="#EB6B69" stroke-width="3.17308" stroke-linecap="round" stroke-linejoin="round"/>
<path d="M26.0005 26.746C28.3371 26.746 30.2313 24.8518 30.2313 22.5152C30.2313 20.1786 28.3371 18.2844 26.0005 18.2844C23.664 18.2844 21.7698 20.1786 21.7698 22.5152C21.7698 24.8518 23.664 26.746 26.0005 26.746Z" stroke="#EB6B69" stroke-width="3.17308" stroke-miterlimit="10" stroke-linecap="round" stroke-linejoin="round"/>
<path d="M26.0005 26.746V33.0921" stroke="#EB6B69" stroke-width="3.17308" stroke-miterlimit="10" stroke-linecap="round" stroke-linejoin="round"/>
</svg>
