<svg width="24" height="23" viewBox="0 0 24 23" fill="none" xmlns="http://www.w3.org/2000/svg">
<path d="M11.8227 14.9332C10.5648 14.9332 9.53564 13.904 9.53564 12.6462V10.2924C9.53564 9.03456 10.5648 8.00537 11.8227 8.00537C13.0806 8.00537 14.1097 9.03456 14.1097 10.2924V12.6462C14.1097 13.9136 13.0806 14.9332 11.8227 14.9332ZM11.8227 9.44431C11.3558 9.44431 10.965 9.82551 10.965 10.302V12.6557C10.965 13.1322 11.3462 13.5134 11.8227 13.5134C12.2992 13.5134 12.6803 13.1322 12.6803 12.6557V10.302C12.6803 9.82551 12.2896 9.44431 11.8227 9.44431Z" fill="#F23935"/>
<path d="M11.8226 17.9736C8.80183 17.9736 6.34326 15.5151 6.34326 12.4943V10.455C6.34326 7.43416 8.80183 4.97559 11.8226 4.97559C14.6433 4.97559 16.9875 7.09113 17.2734 9.89276C17.3115 10.2835 17.0257 10.636 16.635 10.6741C16.2443 10.7218 15.8917 10.4264 15.8535 10.0357C15.6439 7.9678 13.9096 6.40499 11.8226 6.40499C9.59277 6.40499 7.77266 8.22509 7.77266 10.455V12.4943C7.77266 14.7241 9.59277 16.5442 11.8226 16.5442C13.9191 16.5442 15.6915 14.9051 15.8631 12.8182C15.8917 12.4275 16.2347 12.1321 16.635 12.1607C17.0257 12.1893 17.3211 12.5324 17.2925 12.9326C17.0638 15.7628 14.6624 17.9736 11.8226 17.9736Z" fill="#F23935"/>
<path d="M21.352 9.33041C20.9613 9.33041 20.6373 9.00641 20.6373 8.61571V6.70984C20.6373 4.25127 19.0459 2.65987 16.5874 2.65987H14.6815C14.2908 2.65987 13.9668 2.33587 13.9668 1.94517C13.9668 1.55447 14.2908 1.23047 14.6815 1.23047H16.5874C19.8655 1.23047 22.0667 3.43175 22.0667 6.70984V8.61571C22.0667 9.00641 21.7427 9.33041 21.352 9.33041Z" fill="#F23935"/>
<path d="M2.29331 9.33041C1.90261 9.33041 1.57861 9.00641 1.57861 8.61571V6.70984C1.57861 3.43175 3.77989 1.23047 7.05798 1.23047H8.96385C9.35456 1.23047 9.67855 1.55447 9.67855 1.94517C9.67855 2.33587 9.35456 2.65987 8.96385 2.65987H7.05798C4.59941 2.65987 3.00801 4.25127 3.00801 6.70984V8.61571C3.00801 9.00641 2.68402 9.33041 2.29331 9.33041Z" fill="#F23935"/>
<path d="M16.5874 21.7181H14.6815C14.2908 21.7181 13.9668 21.3941 13.9668 21.0034C13.9668 20.6127 14.2908 20.2887 14.6815 20.2887H16.5874C19.0459 20.2887 20.6373 18.6973 20.6373 16.2387V14.3329C20.6373 13.9422 20.9613 13.6182 21.352 13.6182C21.7427 13.6182 22.0667 13.9422 22.0667 14.3329V16.2387C22.0667 19.5168 19.8655 21.7181 16.5874 21.7181Z" fill="#F23935"/>
<path d="M8.96385 21.7181H7.05798C3.77989 21.7181 1.57861 19.5168 1.57861 16.2387V14.3329C1.57861 13.9422 1.90261 13.6182 2.29331 13.6182C2.68402 13.6182 3.00801 13.9422 3.00801 14.3329V16.2387C3.00801 18.6973 4.59941 20.2887 7.05798 20.2887H8.96385C9.35456 20.2887 9.67855 20.6127 9.67855 21.0034C9.67855 21.3941 9.35456 21.7181 8.96385 21.7181Z" fill="#F23935"/>
</svg>
