<svg width="52" height="52" viewBox="0 0 52 52" fill="none" xmlns="http://www.w3.org/2000/svg">
<path d="M26.0007 26.2873C31.8422 26.2873 36.5777 21.5518 36.5777 15.7103C36.5777 9.86887 31.8422 5.13342 26.0007 5.13342C20.1593 5.13342 15.4238 9.86887 15.4238 15.7103C15.4238 21.5518 20.1593 26.2873 26.0007 26.2873Z" stroke="#4C4AB9" stroke-width="3.17308" stroke-linecap="round" stroke-linejoin="round"/>
<path d="M7.82935 47.441C7.82935 39.2545 15.9736 32.6333 26.0005 32.6333C28.0313 32.6333 29.9986 32.9083 31.839 33.416" stroke="#4C4AB9" stroke-width="3.17308" stroke-linecap="round" stroke-linejoin="round"/>
<path d="M47.1543 38.9795C47.1543 40.566 46.7101 42.0679 45.9274 43.3372C45.4831 44.0987 44.912 44.7756 44.2562 45.3256C42.7754 46.6583 40.8293 47.441 38.6927 47.441C35.6043 47.441 32.9177 45.791 31.4581 43.3372C30.6754 42.0679 30.2312 40.566 30.2312 38.9795C30.2312 36.3141 31.4581 33.9237 33.4043 32.3795C34.8639 31.216 36.7043 30.5179 38.6927 30.5179C43.3677 30.5179 47.1543 34.3045 47.1543 38.9795Z" stroke="#4C4AB9" stroke-width="3.17308" stroke-miterlimit="10" stroke-linecap="round" stroke-linejoin="round"/>
<path d="M35.3928 38.9795L37.487 41.0737L41.9928 36.9065" stroke="#4C4AB9" stroke-width="3.17308" stroke-linecap="round" stroke-linejoin="round"/>
</svg>
