<svg width="18" height="18" viewBox="0 0 18 18" fill="none" xmlns="http://www.w3.org/2000/svg">
<path fill-rule="evenodd" clip-rule="evenodd" d="M14.3008 14.3659C14.7302 13.7109 14.8903 13.3762 15.2177 12.6412C12.8018 11.7243 12.4161 8.28232 14.8029 6.9652C14.0753 6.0483 13.0492 5.51709 12.0814 5.51709C11.3828 5.51709 10.9025 5.69902 10.4732 5.86639C10.1093 6.00465 9.78185 6.12835 9.37434 6.12835C8.93773 6.12835 8.55205 5.9901 8.14454 5.84456C7.70064 5.68447 7.23492 5.51709 6.65276 5.51709C5.56849 5.51709 4.41146 6.17929 3.67649 7.3145C2.64316 8.91543 2.82509 11.9135 4.49151 14.475C5.08822 15.3919 5.88868 16.418 6.92929 16.4325C7.3659 16.4398 7.6497 16.3088 7.96261 16.1706C8.31918 16.0105 8.70486 15.8358 9.38162 15.8358C10.0584 15.8285 10.4368 16.0105 10.7933 16.1706C11.099 16.3088 11.3755 16.4398 11.8048 16.4325C12.86 16.418 13.7041 15.2828 14.3008 14.3659Z" fill="#D6D6D6"/>
<path fill-rule="evenodd" clip-rule="evenodd" d="M11.9284 1.87891C12.0448 2.67937 11.7174 3.47257 11.288 4.02562C10.8296 4.62233 10.0291 5.08804 9.25776 5.05893C9.11949 4.28757 9.47607 3.49438 9.91268 2.96316C10.4002 2.38101 11.2225 1.92984 11.9284 1.87891Z" fill="#D6D6D6"/>
</svg>
