<svg width="24" height="24" viewBox="0 0 24 24" fill="none" xmlns="http://www.w3.org/2000/svg">
<path d="M13.9995 9.73355V12.4971H16.4772C16.6677 12.4971 16.763 12.6876 16.763 12.8782L16.3819 14.6888C16.3819 14.7841 16.1913 14.8794 16.096 14.8794H13.9995V21.8358H11.1407V14.9747H9.52074C9.33016 14.9747 9.23486 14.8794 9.23486 14.6888V12.8782C9.23486 12.6876 9.33016 12.5924 9.52074 12.5924H11.1407V9.44767C11.1407 7.82768 12.3795 6.58887 13.9995 6.58887H16.5725C16.763 6.58887 16.8583 6.68416 16.8583 6.87475V9.16179C16.8583 9.35238 16.763 9.44767 16.5725 9.44767H14.2854C14.0948 9.44767 13.9995 9.54296 13.9995 9.73355Z" stroke="#F23935" stroke-width="1.4294" stroke-miterlimit="10" stroke-linecap="round"/>
<path d="M14.9524 21.8355H9.23475C4.47008 21.8355 2.56421 19.9297 2.56421 15.165V9.44739C2.56421 4.68272 4.47008 2.77686 9.23475 2.77686H14.9524C19.717 2.77686 21.6229 4.68272 21.6229 9.44739V15.165C21.6229 19.9297 19.717 21.8355 14.9524 21.8355Z" stroke="#F23935" stroke-width="1.4294" stroke-linecap="round" stroke-linejoin="round"/>
</svg>
