<svg width="24" height="24" viewBox="0 0 24 24" fill="none" xmlns="http://www.w3.org/2000/svg">
<path d="M7.35077 20.5014C8.78018 21.3591 10.4955 21.8355 12.2107 21.8355C17.4519 21.8355 21.7401 17.5473 21.7401 12.3062C21.7401 7.06506 17.4519 2.77686 12.2107 2.77686C6.9696 2.77686 2.6814 7.06506 2.6814 12.3062C2.6814 14.0215 3.15786 15.6415 3.92021 17.0709L3.10111 20.2213C2.91555 20.9349 3.57613 21.5799 4.28517 21.3773L7.35077 20.5014Z" stroke="#F23935" stroke-width="1.4294" stroke-miterlimit="10" stroke-linecap="round" stroke-linejoin="round"/>
<path d="M16.499 15.0207C16.499 15.1751 16.4647 15.3337 16.3916 15.4881C16.3186 15.6425 16.2242 15.7883 16.0996 15.9255C15.8892 16.1571 15.6573 16.3243 15.3953 16.4315C15.1376 16.5387 14.8585 16.5945 14.5578 16.5945C14.1198 16.5945 13.6517 16.4916 13.1578 16.2814C12.6639 16.0713 12.17 15.7883 11.6804 15.4324C11.1865 15.0722 10.7184 14.6734 10.2718 14.2317C9.82943 13.7857 9.43003 13.3183 9.07357 12.8294C8.72141 12.3406 8.43796 11.8517 8.23182 11.3672C8.02568 10.8783 7.92261 10.4109 7.92261 9.96491C7.92261 9.67331 7.97414 9.39458 8.07721 9.13729C8.18029 8.87571 8.34348 8.63557 8.5711 8.42116C8.84596 8.151 9.14658 8.01807 9.46439 8.01807C9.58464 8.01807 9.70489 8.0438 9.81225 8.09525C9.92391 8.14671 10.0227 8.2239 10.1 8.33539L11.0964 9.73764C11.1737 9.84484 11.2295 9.94347 11.2681 10.0378C11.3068 10.1279 11.3283 10.2179 11.3283 10.2994C11.3283 10.4023 11.2982 10.5052 11.2381 10.6039C11.1822 10.7025 11.1006 10.8054 10.9976 10.9083L10.6712 11.2471C10.6239 11.2943 10.6025 11.35 10.6025 11.4186C10.6025 11.4529 10.6068 11.4829 10.6154 11.5172C10.6282 11.5515 10.6411 11.5773 10.6497 11.603C10.727 11.7445 10.8601 11.9289 11.0491 12.1519C11.2424 12.3749 11.4485 12.6022 11.6718 12.8294C11.9037 13.0567 12.1271 13.2668 12.3547 13.4598C12.578 13.6485 12.7627 13.7771 12.9087 13.8543C12.9302 13.8629 12.9559 13.8758 12.986 13.8886C13.0204 13.9015 13.0547 13.9058 13.0934 13.9058C13.1664 13.9058 13.2222 13.88 13.2694 13.8329L13.5958 13.5113C13.7032 13.4041 13.8063 13.3226 13.905 13.2711C14.0038 13.2111 14.1026 13.1811 14.21 13.1811C14.2916 13.1811 14.3775 13.1982 14.4719 13.2368C14.5664 13.2754 14.6652 13.3312 14.7726 13.4041L16.1941 14.4118C16.3058 14.489 16.3831 14.579 16.4303 14.6862C16.4732 14.7934 16.499 14.9006 16.499 15.0207Z" stroke="#F23935" stroke-width="1.4294" stroke-miterlimit="10"/>
</svg>
